<?xml version="1.0" encoding="UTF-8"?>
<svg width="512px" height="512px" viewBox="0 0 512 512" version="1.1" xmlns="http://www.w3.org/2000/svg" xmlns:xlink="http://www.w3.org/1999/xlink">
    <!-- Generator: Sketch 44.1 (41455) - http://www.bohemiancoding.com/sketch -->
    <title>banggood</title>
    <desc>Created with Sketch.</desc>
    <defs></defs>
    <g id="Page-1" stroke="none" stroke-width="1" fill="none" fill-rule="evenodd">
        <g id="banggood">
            <rect id="Rectangle" fill="#333333" x="0" y="0" width="512" height="512" rx="40"></rect>
            <g id="Group" transform="translate(42.000000, 190.000000)" fill-rule="nonzero" fill="#FDFDFD">
                <path d="M46.5334501,24.0013093 C48.6164156,18.635332 47.991526,15.7235614 47.7415701,13.6437252 C46.6167687,7.98657087 39.0347742,3.66051165 33.0774927,3.66051165 C32.4526031,3.61891493 6.91544558,3.70210837 6.91544558,3.70210837 L0.208296554,64.5997113 L25.1622237,64.5997113 C25.1622237,64.5997113 34.2022941,64.5997113 40.4511907,59.3169274 C46.7000873,54.0341436 47.4916142,46.2555563 47.0750211,43.5101726 C46.2834942,37.0626805 38.6598404,32.8198147 38.6598404,32.8198147 C38.6598404,32.8198147 38.201588,32.5286376 38.6181811,32.1126704 C38.6181811,32.1542671 44.4504846,29.3256899 46.5334501,24.0013093 Z M35.0354803,46.0891694 C34.7855245,48.252199 33.7440417,50.4568254 32.0776693,52.4118713 C30.1196817,54.6996911 26.9119147,54.7412879 26.9119147,54.7412879 L14.0391877,54.7412879 L15.5389229,38.6433559 C15.5389229,38.6433559 29.8697258,38.5601625 30.2863189,38.6849527 C33.9939976,40.5568052 35.2854362,43.6765595 35.0354803,46.0891694 Z M34.2439534,23.9597126 C31.9943506,28.1609817 27.9117382,28.1609817 27.9117382,28.1609817 L16.622065,28.1609817 L17.9968222,13.3109515 C17.9968222,13.3109515 30.6195934,13.3109515 30.9945272,13.3525482 C33.0358334,13.8517089 34.5772279,15.931545 34.5772279,15.931545 C36.3685783,19.0512993 34.993821,22.3790371 34.2439534,23.9597126 Z" id="Shape"></path>
                <path d="M57.1565743,33.6517491 C57.1565743,33.6517491 51.9075012,45.3820251 55.9484543,56.5715437 C59.9894075,67.7610622 70.6958503,65.3484523 70.6958503,65.3484523 C70.6958503,65.3484523 77.5279773,64.183744 83.3602808,56.9459142 L82.8603691,64.4749211 L94.649954,64.3917277 L99.4824341,22.1294568 C99.4824341,22.1294568 86.0264767,18.3857517 81.4856118,18.3857517 C81.4856118,18.344155 63.3221523,16.4307057 57.1565743,33.6517491 Z M79.1943497,53.5765796 C79.1943497,53.5765796 74.1535731,57.6530585 70.0293014,55.1988518 C65.9050296,52.7446451 65.821711,44.05093 67.571402,38.7265494 C69.3210931,33.4021688 71.2374214,28.868126 77.9445704,27.8698046 C82.5687539,27.4122406 86.3597512,29.159303 86.3597512,29.159303 C86.3597512,29.159303 86.6513663,46.6715235 79.1943497,53.5765796 Z" id="Shape"></path>
                <path d="M140.85013,18.3025582 C134.476255,18.0113812 127.227535,22.5870207 124.602998,26.7882898 C124.353043,27.204257 124.186405,26.5803062 124.186405,26.5803062 L125.186229,19.0512993 L113.313325,19.2176862 L108.605823,64.2669375 L120.228771,64.5997113 L122.10344,47.045894 C122.10344,47.045894 122.894967,37.4786477 127.602469,32.2374606 C131.7684,27.6202243 134.18464,26.9962734 136.434243,28.3273686 C138.683845,29.6584637 140.516855,32.1126704 139.766988,38.5601625 C139.01712,45.0076546 136.725858,64.2253408 136.725858,64.2253408 L148.348806,64.5581146 L150.848364,43.8013496 C150.848364,43.8013496 152.348099,29.908044 150.431771,25.8731619 C148.515443,21.8382797 147.265663,18.5937353 140.85013,18.3025582 Z" id="Shape"></path>
                <path d="M426.13309,0.291177063 L414.343505,0.915127912 L412.427176,21.5886994 L412.427176,21.5886994 C409.052772,20.0080239 405.428412,18.635332 402.51226,18.3025582 C402.51226,18.3025582 387.598227,16.3059155 381.432649,33.4853623 C381.432649,33.4853623 376.933444,45.2988317 381.016056,56.4883502 C385.098669,67.6778688 395.763452,65.2652588 395.763452,65.2652588 C395.763452,65.2652588 402.595579,64.1005506 408.427883,56.8627207 L407.927971,64.3917277 L419.717556,64.3085342 L422.50873,36.3555362 L422.50873,36.3555362 L426.13309,0.291177063 Z M404.220292,53.5349829 C404.220292,53.5349829 398.971219,57.8610421 395.055244,55.1572551 C391.514202,52.7030484 391.05595,44.3837038 392.597344,38.6849527 C394.09708,33.2357819 395.26354,28.7849325 402.970513,27.8282079 C407.594696,27.3706439 411.177397,29.3256899 411.177397,29.3256899 C411.177397,29.3256899 411.677309,46.6299268 404.220292,53.5349829 Z" id="Shape"></path>
                <path d="M306.362571,18.7185255 C296.78093,16.8882697 287.615881,22.8781978 287.615881,22.8781978 C287.615881,22.8781978 276.034593,29.2424965 276.992757,47.5450547 C277.950921,65.847613 293.323207,65.4732425 293.323207,65.4732425 C293.323207,65.4732425 304.154628,66.7211442 310.528502,61.6879406 C318.943683,54.7828846 321.193286,49.6248909 321.484901,37.3538575 C321.818175,24.0429061 315.944213,20.5487813 306.362571,18.7185255 Z M307.529032,49.0841335 C304.737858,54.4501108 301.113498,55.6564158 301.113498,55.6564158 C301.113498,55.6564158 295.57281,57.4450749 292.864955,55.4484321 C290.157099,53.4517894 289.448891,52.4118713 289.240594,44.4253005 C289.032298,36.4387296 293.031592,31.571913 293.031592,31.571913 C295.614469,28.2025784 297.822412,27.2458538 302.113322,27.2874505 C308.362218,27.7450144 309.278723,32.9862016 309.278723,32.9862016 C309.278723,32.9862016 310.320206,43.7181562 307.529032,49.0841335 Z" id="Shape"></path>
                <path d="M357.770161,18.7185255 C348.188519,16.8882697 339.023471,22.8781978 339.023471,22.8781978 C339.023471,22.8781978 327.442182,29.2424965 328.400347,47.5450547 C329.358511,65.847613 344.730796,65.4732425 344.730796,65.4732425 C344.730796,65.4732425 355.562217,66.7211442 361.936092,61.6879406 C370.351272,54.7828846 372.600875,49.6248909 372.89249,37.3538575 C373.225765,24.0429061 367.351802,20.5487813 357.770161,18.7185255 Z M358.936621,49.0841335 C356.145448,54.4501108 352.521087,55.6564158 352.521087,55.6564158 C352.521087,55.6564158 346.980399,57.4450749 344.272544,55.4484321 C341.564689,53.4517894 340.85648,52.4118713 340.648184,44.4253005 C340.439887,36.4387296 344.439181,31.571913 344.439181,31.571913 C347.022058,28.2025784 349.230002,27.2458538 353.520911,27.2874505 C359.769808,27.7450144 360.686312,32.9862016 360.686312,32.9862016 C360.686312,32.9862016 361.727795,43.7181562 358.936621,49.0841335 Z" id="Shape"></path>
            </g>
            <g id="Group" transform="translate(199.472195, 208.718525)" fill-rule="nonzero" fill="#EA8317">
                <path d="M27.4118265,53.7429665 C27.4118265,53.7429665 25.4954982,55.9059961 17.7468664,55.7396092 C9.99823458,55.5732223 5.70732557,53.9093534 5.70732557,53.9093534 L3.12444831,62.3950849 C3.12444831,62.3950849 12.9560456,64.8076949 19.9964692,64.9740818 C27.0368927,65.1404687 31.4111203,63.1022292 31.4111203,63.1022292 C31.4111203,63.1022292 36.4518969,61.2303767 40.5761687,53.9509501 C44.7004404,46.6715235 44.7004404,36.3139394 44.9920556,31.3223326 C45.2836708,26.3307258 46.9083839,12.6038072 46.9083839,12.6038072 L48.1581632,3.82689854 C48.1581632,3.82689854 37.1184459,0.790337743 30.161341,0.166386893 C30.161341,0.166386893 12.0395408,-2.28781978 5.91562213,14.9332237 C5.91562213,14.9332237 0.666548972,26.6634996 4.70750211,37.8530182 C8.74845526,49.0425368 19.4548981,46.6299268 19.4548981,46.6299268 C19.4548981,46.6299268 26.2870251,45.4652186 32.1193286,38.2273887 L32.2443065,38.0194051 L32.2859658,38.1441953 C32.2859658,38.1441953 33.2024707,40.9727724 31.8277134,46.297153 C30.4529562,51.6215336 27.4118265,53.7429665 27.4118265,53.7429665 Z M27.8700789,34.8580541 C27.8700789,34.8580541 22.8293023,38.934533 18.7050305,36.4803263 C14.5807588,34.0261197 14.4974401,25.3324045 16.2471312,19.9664272 C17.9968222,14.6004499 19.9131505,10.1080038 26.6202996,9.1096824 C31.2444831,8.65211844 35.0354803,10.3991808 35.0354803,10.3991808 C35.0354803,10.3991808 35.3270955,27.9529981 27.8700789,34.8580541 Z" id="Shape"></path>
                <path d="M93.5668119,0.12479017 C93.5668119,0.12479017 75.4450118,-2.3294165 69.3210931,14.8916269 C69.3210931,14.8916269 64.0720199,26.6219029 68.1129731,37.8114215 C72.1539262,49.00094 82.8603691,46.5883301 82.8603691,46.5883301 C82.8603691,46.5883301 89.692496,45.4236218 95.5247995,38.185792 L95.6497775,37.9778084 L95.6914368,38.1025985 C95.6914368,38.1025985 96.6079416,40.9311757 95.2331844,46.2555563 C93.8584271,51.5799369 90.900616,53.7013698 90.900616,53.7013698 C90.900616,53.7013698 88.9842877,55.8643994 81.2356559,55.6980125 C73.4870241,55.5316256 69.1961151,53.8677567 69.1961151,53.8677567 L66.6132379,62.3534882 C66.6132379,62.3534882 76.4448352,64.7660982 83.4852587,64.9324851 C90.5256822,65.098872 94.8999099,63.0606325 94.8999099,63.0606325 C94.8999099,63.0606325 99.9406865,61.18878 104.064958,53.9093534 C108.18923,46.6299268 108.18923,36.2723427 108.480845,31.2807359 C108.77246,26.2891291 110.397173,12.5622104 110.397173,12.5622104 L111.646953,3.78530182 C111.563634,3.78530182 100.523917,0.748741019 93.5668119,0.12479017 Z M91.3172091,34.8580541 C91.3172091,34.8580541 86.2764325,38.934533 82.1521608,36.4803263 C78.027889,34.0261197 77.9445704,25.3324045 79.6942614,20.0080239 C81.4439525,14.6836433 83.3602808,10.1496005 90.0674298,9.15127912 C94.6916133,8.69371517 98.4826106,10.4407775 98.4826106,10.4407775 C98.4826106,10.4407775 98.7742258,27.9529981 91.3172091,34.8580541 Z" id="Shape"></path>
                <path d="M49.5745798,88.4762304 C49.5745798,88.4762304 28.7865837,89.6409387 0,71.2967837 C0,71.2967837 17.2469546,94.4245619 40.3678721,97.419526 C63.4887896,100.41449 81.8188863,93.3430471 99.1075003,74.3333445 C67.1548089,89.599342 49.5745798,88.4762304 49.5745798,88.4762304 Z" id="Shape"></path>
            </g>
            <g id="Group" transform="translate(318.201230, 277.353119)" fill-rule="nonzero" fill="#DE2A1F">
                <ellipse id="Oval" cx="2.87449244" cy="24.8332438" rx="2.7078552" ry="2.70378701"></ellipse>
                <path d="M79.6526021,0.415967233 C73.9452766,-0.665547573 68.4879069,2.87017391 68.4879069,2.87017391 C68.4879069,2.87017391 61.5724613,6.65547573 62.1556916,17.5538172 C62.738922,28.4521587 71.862311,28.2441751 71.862311,28.2441751 C71.862311,28.2441751 78.3195042,28.9929161 82.1105015,25.9979521 C87.1096188,21.8798765 88.484376,18.8017189 88.6510133,11.5222924 C88.8593098,3.5773182 85.3599277,1.49748204 79.6526021,0.415967233 Z M80.3608104,18.4689451 C78.694438,21.6718928 76.5281538,22.3790371 76.5281538,22.3790371 C76.5281538,22.3790371 73.2370683,23.4605519 71.6123552,22.254247 C69.987642,21.047942 69.5710489,20.4239911 69.446071,15.6819647 C69.3210931,10.9399382 71.6956738,8.0281676 71.6956738,8.0281676 C73.2370683,6.03152488 74.5285069,5.44917075 77.1113842,5.44917075 C80.8190628,5.74034781 81.4022932,8.81850534 81.4022932,8.81850534 C81.4022932,8.81850534 82.0271829,15.2659974 80.3608104,18.4689451 Z" id="Shape"></path>
                <path d="M138.43389,4.70042973 C137.309088,2.3294165 136.142628,0.790337743 132.434949,0.582354126 C128.14404,0.332773786 123.478197,3.70210837 121.936803,6.15631505 C121.811825,6.32270194 121.728506,6.23950849 121.686847,6.11471832 C121.686847,6.0731216 121.686847,5.98992815 121.645187,5.94833143 C121.645187,5.94833143 121.645187,5.94833143 121.645187,5.94833143 L121.645187,5.94833143 C121.561869,5.44917075 121.436891,5.03320352 121.270254,4.70042973 C120.145452,2.3294165 118.978991,0.748741019 115.271313,0.582354126 C111.521975,0.415967233 107.397703,2.82857718 105.856309,5.28278386 C105.481375,5.65715437 105.523034,5.03320352 105.523034,5.03320352 L105.731331,1.03991808 L98.8158851,1.12311153 L96.7329195,27.5370308 L103.440069,27.6202243 L104.314914,17.4290271 C104.314914,17.4290271 104.773167,11.8134694 107.56434,8.73531189 C110.02224,6.03152488 111.646953,5.3659773 113.02171,6.15631505 C114.396467,6.94665279 115.104676,8.44413483 114.896379,12.2710334 C114.688082,16.5138991 113.729918,27.4954341 113.729918,27.4954341 L120.603705,27.4538374 L121.728506,15.8899483 C122.06178,14.0180957 122.894967,10.8151481 124.727976,8.73531189 C127.185876,6.03152488 128.810589,5.40757403 130.185346,6.19791177 C131.560103,6.98824951 132.268312,8.48573155 132.060015,12.2710334 C131.851718,16.5138991 131.101851,27.4954341 131.101851,27.4954341 L137.850659,27.4538374 L138.933801,15.182804 C138.808823,15.2244007 139.558691,7.07144296 138.43389,4.70042973 Z" id="Shape"></path>
                <path d="M34.0356569,8.11136104 C29.7030886,17.7618008 33.9939976,23.8349224 33.9939976,23.8349224 C33.9939976,23.8349224 35.7853479,26.7882898 41.1177397,28.0361915 C46.9917025,29.4088834 54.1154447,26.7882898 54.1154447,26.7882898 L53.7405109,22.0462633 C53.7405109,22.0462633 47.6165922,24.1260995 43.0757273,22.4622306 C38.5348624,20.7983616 37.8266542,13.8933056 41.9092666,8.568925 C45.9918791,3.24454442 55.8234764,7.15463641 55.8234764,7.15463641 L56.4900254,2.12143289 C51.6575453,-0.0831934466 38.3682252,-1.58067549 34.0356569,8.11136104 Z" id="Shape"></path>
            </g>
        </g>
    </g>
</svg>